<?xml version="1.0" standalone="no"?><!DOCTYPE svg PUBLIC "-//W3C//DTD SVG 1.1//EN" "http://www.w3.org/Graphics/SVG/1.1/DTD/svg11.dtd"><svg t="1692237022815" class="icon" viewBox="0 0 1024 1024" version="1.1" xmlns="http://www.w3.org/2000/svg" p-id="4870" xmlns:xlink="http://www.w3.org/1999/xlink" width="200" height="200"><path d="M512 938.666667C276.352 938.666667 85.333333 747.648 85.333333 512S276.352 85.333333 512 85.333333a426.026667 426.026667 0 0 1 284.032 108.202667 41.813333 41.813333 0 0 1-38.314667 71.68A56.746667 56.746667 0 0 1 737.706667 256c-32.341333-24.192-47.530667-36.608-73.514667-49.578667a341.333333 341.333333 0 1 0 6.613333 607.829334c12.330667-6.528 51.626667-33.962667 87.552-54.101334a39.168 39.168 0 0 1 46.293334 62.421334A425.770667 425.770667 0 0 1 512 938.666667z m298.666667-282.624V554.666667h-298.666667a42.666667 42.666667 0 0 1 0-85.333334h298.666667V367.957333a12.8 12.8 0 0 1 20.778666-9.984l171.733334 137.386667a21.333333 21.333333 0 0 1 0 33.28l-171.733334 137.386667a12.8 12.8 0 0 1-20.778666-9.984z" fill="#424242" p-id="4871"></path></svg>